<?xml version="1.0" encoding="UTF-8"?>
<svg width="268px" height="91px" viewBox="0 0 268 91" version="1.1" xmlns="http://www.w3.org/2000/svg" xmlns:xlink="http://www.w3.org/1999/xlink">
    <!-- Generator: Sketch 47.1 (45422) - http://www.bohemiancoding.com/sketch -->
    <title>logo/full</title>
    <desc>Created with Sketch.</desc>
    <defs>
        <filter x="-4.3%" y="-14.5%" width="110.3%" height="134.2%" filterUnits="objectBoundingBox" id="filter-1">
            <feOffset dx="2" dy="2" in="SourceAlpha" result="shadowOffsetOuter1"></feOffset>
            <feGaussianBlur stdDeviation="4" in="shadowOffsetOuter1" result="shadowBlurOuter1"></feGaussianBlur>
            <feColorMatrix values="0 0 0 0 0   0 0 0 0 0   0 0 0 0 0  0 0 0 0.3 0" type="matrix" in="shadowBlurOuter1" result="shadowMatrixOuter1"></feColorMatrix>
            <feMerge>
                <feMergeNode in="shadowMatrixOuter1"></feMergeNode>
                <feMergeNode in="SourceGraphic"></feMergeNode>
            </feMerge>
        </filter>
    </defs>
    <g id="Assets" stroke="none" stroke-width="1" fill="none" fill-rule="evenodd">
        <g id="logo/full" fill="#FFFFFF">
            <g id="Group" filter="url(#filter-1)" transform="translate(5.000000, 5.000000)">
                <polygon id="A" points="32.0990712 0 64 76 58.6501548 76 52.1944077 61.0812164 46.3979457 56.6185526 40.7265682 49.045678 37.9319951 53.5750597 34.2786378 50.649297 20.3015003 54.9277183 15.2569659 52.7805669 5.44891641 76 0 76"></polygon>
                <path d="M82.5668556,76 C79.8618856,76 77.2234709,75.558563 74.6515322,74.6756757 C72.0795936,73.7927884 69.8624383,72.512621 68,70.8351351 L70.061975,67.7891892 C72.0131009,69.3783863 73.9974548,70.5702663 76.0150963,71.3648649 C78.0327378,72.1594634 80.1944642,72.5567568 82.5003402,72.5567568 C85.2939977,72.5567568 87.5222387,71.9939245 89.1851301,70.8682432 C90.8480215,69.7425619 91.6794547,68.1423527 91.6794547,66.0675676 C91.6794547,65.0963915 91.4577392,64.290769 91.0143015,63.6506757 C90.5708638,63.0105824 89.916803,62.4477502 89.0520995,61.9621622 C88.187396,61.4765741 87.1009899,61.046173 85.7928487,60.6709459 C84.4847075,60.2957188 82.9659561,59.9094614 81.2365491,59.5121622 C79.2410795,59.0265741 77.5116984,58.5409934 76.048354,58.0554054 C74.5850096,57.5698174 73.37666,57.0180211 72.4232689,56.4 C71.4698779,55.7819789 70.7603882,55.0205 70.2947786,54.1155405 C69.829169,53.2105811 69.5963677,52.0738807 69.5963677,50.7054054 C69.5963677,48.9837752 69.9400268,47.4608174 70.6273552,46.1364865 C71.3146837,44.8121555 72.2458889,43.7195989 73.4209988,42.8587838 C74.5961087,41.9979687 75.9707449,41.3468491 77.5449487,40.9054054 C79.1191526,40.4639618 80.7931048,40.2432432 82.5668556,40.2432432 C85.2274817,40.2432432 87.6441809,40.6736443 89.8170257,41.5344595 C91.9898704,42.3952746 93.741423,43.5319749 95.0717361,44.9445946 L92.8767305,47.5932432 C91.5907612,46.2689123 90.0276667,45.275679 88.1874003,44.6135135 C86.3471338,43.951348 84.4292946,43.6202703 82.4338249,43.6202703 C81.2365431,43.6202703 80.1279655,43.7416655 79.1080588,43.9844595 C78.0881521,44.2272535 77.1902042,44.6135109 76.4141883,45.1432432 C75.6381723,45.6729756 75.0284546,46.3461671 74.5850169,47.1628378 C74.1415792,47.9795086 73.9198637,48.9396341 73.9198637,50.0432432 C73.9198637,50.9702749 74.0750645,51.7207179 74.3854709,52.2945946 C74.6958773,52.8684713 75.205823,53.365088 75.9153233,53.7844595 C76.6248237,54.2038309 77.5227715,54.5790524 78.6091939,54.9101351 C79.6956162,55.2412179 81.0148236,55.5833316 82.5668556,55.9364865 C84.784044,56.4662189 86.7351407,56.9959433 88.4202039,57.5256757 C90.1052672,58.0554081 91.5131607,58.6734199 92.6439269,59.3797297 C93.774693,60.0860396 94.6282978,60.9468418 95.2047668,61.9621622 C95.7812358,62.9774826 96.069466,64.2135062 96.069466,65.6702703 C96.069466,68.8486645 94.8500306,71.3648556 92.4111232,73.2189189 C89.9722159,75.0729822 86.6908261,76 82.5668556,76 Z M101.761748,57.9891892 C101.761748,55.5612491 102.183008,53.2657766 103.025539,51.1027027 C103.868071,48.9396288 105.054249,47.0524855 106.584109,45.4412162 C108.113969,43.8299469 109.943122,42.5608154 112.071623,41.6337838 C114.200124,40.7067521 116.550309,40.2432432 119.122247,40.2432432 C122.403686,40.2432432 125.263817,40.9826503 127.702724,42.4614865 C130.141631,43.9403227 131.98187,45.9378253 133.223496,48.4540541 L128.833484,49.8445946 C127.857921,48.07882 126.494371,46.6993293 124.742792,45.7060811 C122.991213,44.7128329 121.051202,44.2162162 118.922701,44.2162162 C117.148951,44.2162162 115.49717,44.5693658 113.96731,45.2756757 C112.43745,45.9819855 111.107157,46.942111 109.976391,48.1560811 C108.845624,49.3700511 107.958762,50.8157574 107.315778,52.4932432 C106.672793,54.1707291 106.351305,56.0026928 106.351305,57.9891892 C106.351305,59.9315412 106.683879,61.7635049 107.349035,63.4851351 C108.014192,65.2067654 108.923226,66.6966153 110.076164,67.9547297 C111.229102,69.2128441 112.57048,70.2060774 114.100341,70.9344595 C115.630201,71.6628415 117.25981,72.027027 118.989217,72.027027 C120.097811,72.027027 121.195303,71.8725241 122.281725,71.5635135 C123.368148,71.254503 124.376953,70.8241019 125.308172,70.2722973 C126.239391,69.7204927 127.037567,69.091445 127.702724,68.3851351 C128.36788,67.6788253 128.833483,66.9283824 129.099546,66.1337838 L133.556072,67.4581081 C133.068291,68.6941503 132.358801,69.8308507 131.427582,70.8682432 C130.496363,71.9056358 129.398871,72.8105817 128.135074,73.5831081 C126.871276,74.3556345 125.474468,74.9515745 123.944608,75.3709459 C122.414748,75.7903174 120.829482,76 119.188763,76 C116.661168,76 114.333155,75.5254552 112.204654,74.5763514 C110.076153,73.6272475 108.235914,72.3250083 106.683882,70.6695946 C105.13185,69.0141809 103.923501,67.1049658 103.058797,64.9418919 C102.194094,62.778818 101.761748,60.4612736 101.761748,57.9891892 Z M156.010216,76 C153.482621,76 151.165694,75.5254552 149.059365,74.5763514 C146.953036,73.6272475 145.123882,72.3250083 143.571851,70.6695946 C142.019819,69.0141809 140.811469,67.1049658 139.946765,64.9418919 C139.082062,62.778818 138.649717,60.4612736 138.649717,57.9891892 C138.649717,55.5612491 139.082062,53.2768125 139.946765,51.1358108 C140.811469,48.9948091 142.008733,47.1187017 143.538593,45.5074324 C145.068453,43.8961631 146.897606,42.6159957 149.026107,41.6668919 C151.154608,40.717788 153.460449,40.2432432 155.9437,40.2432432 C158.471295,40.2432432 160.788223,40.717788 162.894552,41.6668919 C165.000881,42.6159957 166.807862,43.907199 168.31555,45.5405405 C169.823239,47.173882 170.998331,49.0499894 171.840862,51.1689189 C172.683394,53.2878484 173.104654,55.5391773 173.104654,57.922973 L173.104654,58.9824324 C173.104654,59.3355874 173.082482,59.5783777 173.038138,59.7108108 L143.372305,59.7108108 C143.505336,61.5648741 143.937681,63.2754426 144.669353,64.8425676 C145.401026,66.4096925 146.343317,67.7671114 147.496255,68.9148649 C148.649193,70.0626184 149.9684,70.9565283 151.453916,71.5966216 C152.939432,72.2367149 154.524698,72.5567568 156.209762,72.5567568 C157.318356,72.5567568 158.426934,72.4022538 159.535528,72.0932432 C160.644122,71.7842327 161.664013,71.3648675 162.595233,70.8351351 C163.526452,70.3054028 164.368971,69.6542831 165.122815,68.8817568 C165.876659,68.1092304 166.453119,67.2594641 166.852213,66.3324324 L170.776617,67.3918919 C170.244492,68.6720785 169.490659,69.8308507 168.515096,70.8682432 C167.539533,71.9056358 166.408784,72.8105817 165.122815,73.5831081 C163.836846,74.3556345 162.417866,74.9515745 160.865834,75.3709459 C159.313802,75.7903174 157.695279,76 156.010216,76 Z M168.781158,56.2675676 C168.648126,54.4135042 168.215781,52.7250076 167.484109,51.202027 C166.752437,49.6790464 165.821231,48.3657713 164.690465,47.2621622 C163.559699,46.158553 162.251578,45.2977508 160.766061,44.6797297 C159.280545,44.0617086 157.695279,43.7527027 156.010216,43.7527027 C154.325152,43.7527027 152.728801,44.0617086 151.221113,44.6797297 C149.713424,45.2977508 148.394217,46.158553 147.263451,47.2621622 C146.132685,48.3657713 145.223651,49.6900824 144.536323,51.2351351 C143.848994,52.7801879 143.438821,54.4576486 143.305789,56.2675676 L168.781158,56.2675676 Z M209.926107,75.3378378 L205.403065,75.3378378 L205.403065,56.0689189 C205.403065,51.963493 204.793347,48.9837931 203.573893,47.1297297 C202.35444,45.2756664 200.480944,44.3486486 197.953349,44.3486486 C196.623036,44.3486486 195.292742,44.591439 193.962429,45.077027 C192.632116,45.562615 191.401595,46.2468424 190.270829,47.1297297 C189.140063,48.012617 188.131257,49.06103 187.244382,50.275 C186.357506,51.48897 185.714531,52.8022452 185.315437,54.2148649 L185.315437,75.3378378 L180.792396,75.3378378 L180.792396,40.8391892 L184.916345,40.8391892 L184.916345,48.6527027 C186.335346,46.1364739 188.364043,44.1058636 191.002497,42.5608108 C193.640952,41.015758 196.512168,40.2432432 199.616232,40.2432432 C201.523014,40.2432432 203.141537,40.5963929 204.47185,41.3027027 C205.802163,42.0090125 206.866398,43.0022459 207.664586,44.2824324 C208.462774,45.562619 209.039234,47.1297205 209.393984,48.9837838 C209.748734,50.8378471 209.926107,52.8905293 209.926107,55.1418919 L209.926107,75.3378378 Z M234.50874,76 C232.114177,76 229.897022,75.5033833 227.857208,74.5101351 C225.817395,73.5168869 224.065842,72.2036118 222.602498,70.5702703 C221.139153,68.9369288 219.997318,67.0497855 219.176959,64.9087838 C218.356599,62.7677821 217.946425,60.5274892 217.946425,58.1878378 C217.946425,55.7598978 218.345513,53.4533893 219.143701,51.2682432 C219.941889,49.0830972 221.039381,47.173882 222.436209,45.5405405 C223.833038,43.907199 225.495905,42.6159957 227.424859,41.6668919 C229.353813,40.717788 231.471196,40.2432432 233.777072,40.2432432 C236.703761,40.2432432 239.297832,41.0047221 241.559365,42.5277027 C243.820897,44.0506833 245.594621,45.8936829 246.88059,48.0567568 L246.88059,27 L251.403632,27 L251.403632,69.5108108 C251.403632,70.746853 251.93575,71.3648649 253,71.3648649 L253,75.3378378 C252.334843,75.4702709 251.802726,75.5364865 251.403632,75.5364865 C250.339382,75.5364865 249.408177,75.1943728 248.609989,74.5101351 C247.811801,73.8258975 247.412713,72.9982031 247.412713,72.027027 L247.412713,68.65 C246.038056,70.9013626 244.175646,72.6891826 241.825426,74.0135135 C239.475206,75.3378445 237.036335,76 234.50874,76 Z M235.50647,72.027027 C236.615065,72.027027 237.801243,71.8063085 239.06504,71.3648649 C240.328837,70.9234212 241.515015,70.3164453 242.62361,69.5439189 C243.732204,68.7713925 244.674495,67.8664466 245.450511,66.8290541 C246.226527,65.7916615 246.703215,64.677033 246.88059,63.4851351 L246.88059,52.8243243 C246.437153,51.6324265 245.794178,50.517798 244.951646,49.4804054 C244.109114,48.4430128 243.144652,47.527031 242.05823,46.7324324 C240.971807,45.9378339 239.807801,45.319822 238.566175,44.8783784 C237.32455,44.4369347 236.105114,44.2162162 234.907832,44.2162162 C233.045394,44.2162162 231.360356,44.6135095 229.852668,45.4081081 C228.34498,46.2027067 227.047944,47.2511196 225.961522,48.5533784 C224.875099,49.8556371 224.043666,51.3454871 223.467197,53.022973 C222.890728,54.7004588 222.602498,56.4220632 222.602498,58.1878378 C222.602498,60.0419012 222.935071,61.8076493 223.600228,63.4851351 C224.265384,65.162621 225.174418,66.6303991 226.327356,67.8885135 C227.480294,69.1466279 228.843844,70.1508971 230.418048,70.9013514 C231.992252,71.6518056 233.688376,72.027027 235.50647,72.027027 Z" id="scend"></path>
            </g>
        </g>
    </g>
</svg>