<?xml version="1.0" encoding="UTF-8"?>
<svg width="498px" height="177px" viewBox="0 0 498 177" version="1.1" xmlns="http://www.w3.org/2000/svg" xmlns:xlink="http://www.w3.org/1999/xlink">
    <!-- Generator: Sketch 47.1 (45422) - http://www.bohemiancoding.com/sketch -->
    <title>ascend_logo</title>
    <desc>Created with Sketch.</desc>
    <defs>
        <filter x="-2.3%" y="-6.7%" width="105.4%" height="115.8%" filterUnits="objectBoundingBox" id="filter-1">
            <feOffset dx="2" dy="2" in="SourceAlpha" result="shadowOffsetOuter1"></feOffset>
            <feGaussianBlur stdDeviation="4" in="shadowOffsetOuter1" result="shadowBlurOuter1"></feGaussianBlur>
            <feColorMatrix values="0 0 0 0 0   0 0 0 0 0   0 0 0 0 0  0 0 0 0.3 0" type="matrix" in="shadowBlurOuter1" result="shadowMatrixOuter1"></feColorMatrix>
            <feMerge>
                <feMergeNode in="shadowMatrixOuter1"></feMergeNode>
                <feMergeNode in="SourceGraphic"></feMergeNode>
            </feMerge>
        </filter>
    </defs>
    <g id="assets" stroke="none" stroke-width="1" fill="none" fill-rule="evenodd">
        <g id="ascend_logo" fill="#FFFFFF">
            <g id="Group" filter="url(#filter-1)" transform="translate(4.000000, 5.000000)">
                <polygon id="A" points="66.8046412 0.142745796 134.288698 164.621404 104.982716 116.362247 93.9703225 107.871117 83.1955701 93.4621747 77.8863073 102.080249 70.9454854 96.5133877 44.3910554 104.653959 34.8072093 100.568564 0.288697885 154.744771"></polygon>
                <path d="M162.480176,139 C157.377287,139 152.399953,138.171179 147.548026,136.513514 C142.696098,134.855848 138.513465,132.452268 135,129.302703 L138.889888,123.583784 C142.570661,126.567582 146.314117,128.805398 150.120371,130.297297 C153.926624,131.789197 158.004692,132.535135 162.354696,132.535135 C167.624893,132.535135 171.82844,131.478389 174.965462,129.364865 C178.102484,127.251341 179.670971,124.246866 179.670971,120.351351 C179.670971,118.527919 179.252708,117.015321 178.416169,115.813514 C177.579629,114.611706 176.345753,113.55496 174.714501,112.643243 C173.08325,111.731527 171.033759,110.923427 168.565969,110.218919 C166.098178,109.514411 163.233074,108.789193 159.970571,108.043243 C156.206145,107.131527 152.94369,106.219824 150.183111,105.308108 C147.422532,104.396392 145.142996,103.360366 143.344437,102.2 C141.545878,101.039634 140.207435,99.6099184 139.329069,97.9108108 C138.450703,96.2117032 138.011526,94.0774903 138.011526,91.5081081 C138.011526,88.2756595 138.659834,85.4162286 139.95647,82.9297297 C141.253106,80.4432308 143.009812,78.3919 145.226641,76.7756757 C147.44347,75.1594514 150.036703,73.9369411 153.006417,73.1081081 C155.976131,72.2792751 159.134019,71.8648649 162.480176,71.8648649 C167.499412,71.8648649 172.058482,72.6729649 176.157524,74.2891892 C180.256566,75.9054135 183.560847,78.0396264 186.070464,80.6918919 L181.929616,85.6648649 C179.503652,83.1783659 176.554896,81.3135197 173.083258,80.0702703 C169.61162,78.8270208 165.993642,78.2054054 162.229216,78.2054054 C159.97056,78.2054054 157.879243,78.4333311 155.955203,78.8891892 C154.031163,79.3450473 152.337196,80.0702653 150.873252,81.0648649 C149.409309,82.0594644 148.259085,83.3234158 147.422545,84.8567568 C146.586006,86.3900978 146.167743,88.1927824 146.167743,90.2648649 C146.167743,92.0054141 146.460527,93.414409 147.046105,94.4918919 C147.631682,95.5693748 148.593688,96.5017979 149.932151,97.2891892 C151.270613,98.0765805 152.96458,98.781078 155.014101,99.4027027 C157.063622,100.024327 159.552289,100.666663 162.480176,101.32973 C166.662872,102.324329 170.34359,103.318914 173.522439,104.313514 C176.701288,105.308113 179.35726,106.468462 181.490435,107.794595 C183.62361,109.120727 185.233924,110.736927 186.321425,112.643243 C187.408926,114.549559 187.952668,116.870257 187.952668,119.605405 C187.952668,125.573003 185.65222,130.29728 181.051254,133.778378 C176.450288,137.259477 170.259991,139 162.480176,139 Z M198.691082,105.183784 C198.691082,100.625202 199.485782,96.3153356 201.075207,92.2540541 C202.664631,88.1927725 204.90234,84.6495647 207.7884,81.6243243 C210.674461,78.599084 214.125133,76.2162249 218.140522,74.4756757 C222.15591,72.7351264 226.589501,71.8648649 231.441429,71.8648649 C237.631819,71.8648649 243.027416,73.2531393 247.628382,76.0297297 C252.229348,78.8063202 255.700933,82.5567331 258.043243,87.2810811 L249.761546,89.8918919 C247.92116,86.57656 245.34884,83.9864958 242.04451,82.1216216 C238.740181,80.2567474 235.080376,79.3243243 231.064988,79.3243243 C227.718831,79.3243243 224.602769,79.9873808 221.716709,81.3135135 C218.830649,82.6396463 216.321069,84.4423309 214.187894,86.7216216 C212.054719,89.0009123 210.381665,91.7152996 209.168683,94.8648649 C207.955701,98.0144302 207.34922,101.454035 207.34922,105.183784 C207.34922,108.830649 207.976615,112.270254 209.231423,115.502703 C210.486232,118.735151 212.201112,121.532421 214.376114,123.894595 C216.551116,126.256769 219.081609,128.121615 221.967669,129.489189 C224.85373,130.856764 227.927965,131.540541 231.190468,131.540541 C233.281816,131.540541 235.35222,131.250453 237.401741,130.67027 C239.451262,130.090087 241.35436,129.281987 243.111093,128.245946 C244.867825,127.209905 246.373573,126.028835 247.628382,124.702703 C248.883191,123.37657 249.761544,121.967575 250.263467,120.475676 L258.670644,122.962162 C257.750451,125.282894 256.412009,127.417107 254.655276,129.364865 C252.898544,131.312622 250.82814,133.011704 248.444004,134.462162 C246.059867,135.91262 243.424808,137.031528 240.538747,137.818919 C237.652687,138.60631 234.662104,139 231.566909,139 C226.798635,139 222.40687,138.109018 218.391482,136.327027 C214.376094,134.545036 210.904508,132.100016 207.976621,128.991892 C205.048734,125.883768 202.769198,122.299119 201.137947,118.237838 C199.506695,114.176556 198.691082,109.825248 198.691082,105.183784 Z M301.030083,139 C296.261809,139 291.890957,138.109018 287.917396,136.327027 C283.943835,134.545036 280.493162,132.100016 277.565275,128.991892 C274.637387,125.883768 272.357852,122.299119 270.726601,118.237838 C269.095349,114.176556 268.279736,109.825248 268.279736,105.183784 C268.279736,100.625202 269.095349,96.3360561 270.726601,92.3162162 C272.357852,88.2963763 274.616474,84.773889 277.502535,81.7486486 C280.388595,78.7234083 283.839267,76.3198287 287.854656,74.5378378 C291.870044,72.7558469 296.219983,71.8648649 300.904602,71.8648649 C305.672876,71.8648649 310.043728,72.7558469 314.017289,74.5378378 C317.990851,76.3198287 321.399697,78.7441288 324.24393,81.8108108 C327.088163,84.8774928 329.304959,88.3999801 330.894384,92.3783784 C332.483808,96.3567766 333.278509,100.583761 333.278509,105.059459 L333.278509,107.048649 C333.278509,107.711715 333.236682,108.167566 333.153028,108.416216 L277.188834,108.416216 C277.439796,111.897315 278.255409,115.108994 279.635699,118.051351 C281.015989,120.993708 282.793608,123.542332 284.96861,125.697297 C287.143612,127.852263 289.632279,129.530625 292.434685,130.732432 C295.237092,131.93424 298.227674,132.535135 301.406523,132.535135 C303.497872,132.535135 305.589188,132.245048 307.680536,131.664865 C309.771884,131.084682 311.695896,130.297302 313.452628,129.302703 C315.20936,128.308103 316.798761,127.085593 318.220878,125.635135 C319.642995,124.184677 320.730479,122.589198 321.483364,120.848649 L328.8867,122.837838 C327.882853,125.241453 326.460757,127.417107 324.620371,129.364865 C322.779985,131.312622 320.646842,133.011704 318.220878,134.462162 C315.794914,135.91262 313.118029,137.031528 310.190141,137.818919 C307.262254,138.60631 304.208932,139 301.030083,139 Z M325.122292,101.951351 C324.87133,98.4702529 324.055717,95.3000143 322.675427,92.4405405 C321.295137,89.5810668 319.538431,87.1153257 317.405256,85.0432432 C315.272081,82.9711608 312.804327,81.3549608 310.001921,80.1945946 C307.199515,79.0342284 304.208932,78.4540541 301.030083,78.4540541 C297.851234,78.4540541 294.839738,79.0342284 291.995504,80.1945946 C289.151271,81.3549608 286.662604,82.9711608 284.529429,85.0432432 C282.396254,87.1153257 280.681374,89.6017873 279.384738,92.5027027 C278.088103,95.4036181 277.314315,98.5531362 277.063354,101.951351 L325.122292,101.951351 Z M402.741682,137.756757 L394.209025,137.756757 L394.209025,101.578378 C394.209025,93.8702317 393.058801,88.2756931 390.758318,84.7945946 C388.457835,81.3134961 384.92351,79.572973 380.155236,79.572973 C377.645618,79.572973 375.136038,80.0288243 372.626421,80.9405405 C370.116803,81.8522568 367.795441,83.1369286 365.662266,84.7945946 C363.529091,86.4522605 361.625993,88.4207093 359.952915,90.7 C358.279836,92.9792907 357.066873,95.4450318 356.313987,98.0972973 L356.313987,137.756757 L347.78133,137.756757 L347.78133,72.9837838 L355.561106,72.9837838 L355.561106,87.6540541 C358.238031,82.9297061 362.065141,79.1171316 367.042549,76.2162162 C372.019958,73.3153008 377.436468,71.8648649 383.292242,71.8648649 C386.889361,71.8648649 389.942684,72.5279213 392.452301,73.8540541 C394.961919,75.1801868 396.969583,77.045033 398.475354,79.4486486 C399.981124,81.8522643 401.068609,84.7945772 401.73784,88.2756757 C402.407072,91.7567742 402.741682,95.6107897 402.741682,99.8378378 L402.741682,137.756757 Z M449.116489,139 C444.599177,139 440.416544,138.067577 436.568463,136.202703 C432.720383,134.337829 429.416102,131.872087 426.655523,128.805405 C423.894943,125.738723 421.740887,122.195516 420.19329,118.175676 C418.645692,114.155836 417.871905,109.949572 417.871905,105.556757 C417.871905,100.998175 418.624779,96.6675881 420.130549,92.5648649 C421.63632,88.4621416 423.706724,84.8774928 426.341822,81.8108108 C428.976921,78.7441288 432.113896,76.3198287 435.752841,74.5378378 C439.391787,72.7558469 443.386202,71.8648649 447.736206,71.8648649 C453.257365,71.8648649 458.151046,73.2945803 462.417396,76.1540541 C466.683746,79.0135278 470.029853,82.4738536 472.455816,86.5351351 L472.455816,47 L480.988474,47 L480.988474,126.816216 C480.988474,129.136949 481.992306,130.297297 484,130.297297 L484,137.756757 C482.745191,138.005407 481.741359,138.12973 480.988474,138.12973 C478.98078,138.12973 477.224074,137.487394 475.718303,136.202703 C474.212532,134.918012 473.459658,133.363973 473.459658,131.540541 L473.459658,125.2 C470.866387,129.427048 467.352975,132.783771 462.919317,135.27027 C458.485659,137.756769 453.884762,139 449.116489,139 Z M450.998693,131.540541 C453.090041,131.540541 455.327749,131.12613 457.711886,130.297297 C460.096023,129.468464 462.333732,128.328836 464.42508,126.878378 C466.516428,125.427921 468.294047,123.728839 469.757991,121.781081 C471.221935,119.833324 472.121201,117.740552 472.455816,115.502703 L472.455816,95.4864865 C471.619277,93.2486375 470.406314,91.1558656 468.816889,89.2081081 C467.227464,87.2603506 465.408019,85.540548 463.358498,84.0486486 C461.308977,82.5567493 459.113094,81.3964005 456.770784,80.5675676 C454.428475,79.7387346 452.128026,79.3243243 449.86937,79.3243243 C446.355906,79.3243243 443.177104,80.0702628 440.332871,81.5621622 C437.488637,83.0540615 435.041797,85.0225103 432.992276,87.4675676 C430.942755,89.9126248 429.374267,92.7098942 428.286766,95.8594595 C427.199265,99.0090248 426.655523,102.241425 426.655523,105.556757 C426.655523,109.037855 427.282918,112.353137 428.537727,115.502703 C429.792536,118.652268 431.507415,121.408096 433.682417,123.77027 C435.857419,126.132444 438.429739,128.018011 441.399453,129.427027 C444.369167,130.836043 447.568882,131.540541 450.998693,131.540541 Z" id="scend"></path>
            </g>
        </g>
    </g>
</svg>