<?xml version="1.0" encoding="UTF-8"?>
<svg width="30px" height="30px" viewBox="0 0 30 30" version="1.1" xmlns="http://www.w3.org/2000/svg" xmlns:xlink="http://www.w3.org/1999/xlink">
    <!-- Generator: Sketch 47.1 (45422) - http://www.bohemiancoding.com/sketch -->
    <title>instagram</title>
    <desc>Created with Sketch.</desc>
    <defs></defs>
    <g id="assets" stroke="none" stroke-width="1" fill="none" fill-rule="evenodd">
        <g id="instagram" fill="#FFFFFF">
            <path d="M18.5351562,18.5351562 C19.5117236,17.5585889 20,16.3802152 20,15 C20,13.6197848 19.5117236,12.4414111 18.5351562,11.4648438 C17.5585889,10.4882764 16.3802152,10 15,10 C13.6197848,10 12.4414111,10.4882764 11.4648438,11.4648438 C10.4882764,12.4414111 10,13.6197848 10,15 C10,16.3802152 10.4882764,17.5585889 11.4648438,18.5351562 C12.4414111,19.5117236 13.6197848,20 15,20 C16.3802152,20 17.5585889,19.5117236 18.5351562,18.5351562 Z M20.4492187,9.55078125 C21.9466221,11.0481846 22.6953125,12.8645727 22.6953125,15 C22.6953125,17.1354273 21.9466221,18.9518154 20.4492187,20.4492188 C18.9518154,21.9466221 17.1354273,22.6953125 15,22.6953125 C12.8645727,22.6953125 11.0481846,21.9466221 9.55078125,20.4492188 C8.05337793,18.9518154 7.3046875,17.1354273 7.3046875,15 C7.3046875,12.8645727 8.05337793,11.0481846 9.55078125,9.55078125 C11.0481846,8.05337793 12.8645727,7.3046875 15,7.3046875 C17.1354273,7.3046875 18.9518154,8.05337793 20.4492187,9.55078125 Z M24.2773438,5.72265625 C24.628908,6.07422051 24.8046875,6.49739336 24.8046875,6.9921875 C24.8046875,7.48698164 24.628908,7.91015449 24.2773438,8.26171875 C23.9257795,8.61328301 23.5026066,8.7890625 23.0078125,8.7890625 C22.5130184,8.7890625 22.0898455,8.61328301 21.7382812,8.26171875 C21.386717,7.91015449 21.2109375,7.48698164 21.2109375,6.9921875 C21.2109375,6.49739336 21.386717,6.07422051 21.7382812,5.72265625 C22.0898455,5.37109199 22.5130184,5.1953125 23.0078125,5.1953125 C23.5026066,5.1953125 23.9257795,5.37109199 24.2773438,5.72265625 Z M16.484375,2.6953125 L15,2.6953125 C14.9088537,2.6953125 14.4108118,2.69205732 13.5058594,2.68554688 C12.6009069,2.67903643 11.9140648,2.67903643 11.4453125,2.68554688 C10.9765602,2.69205732 10.3483112,2.71158838 9.56054688,2.74414063 C8.77278252,2.77669287 8.10221631,2.84179639 7.54882813,2.93945313 C6.99543994,3.03710986 6.5299498,3.15755137 6.15234375,3.30078125 C5.50129883,3.56119922 4.92838789,3.93879961 4.43359375,4.43359375 C3.93879961,4.92838789 3.56119922,5.50129883 3.30078125,6.15234375 C3.15755137,6.5299498 3.03710986,6.99543994 2.93945313,7.54882813 C2.84179639,8.10221631 2.77669287,8.77278252 2.74414063,9.56054688 C2.71158838,10.3483112 2.69205732,10.9765602 2.68554688,11.4453125 C2.67903643,11.9140648 2.67903643,12.6009069 2.68554688,13.5058594 C2.69205732,14.4108118 2.6953125,14.9088537 2.6953125,15 C2.6953125,15.0911463 2.69205732,15.5891882 2.68554688,16.4941406 C2.67903643,17.3990931 2.67903643,18.0859352 2.68554688,18.5546875 C2.69205732,19.0234398 2.71158838,19.6516888 2.74414063,20.4394531 C2.77669287,21.2272175 2.84179639,21.8977837 2.93945313,22.4511719 C3.03710986,23.0045601 3.15755137,23.4700502 3.30078125,23.8476562 C3.56119922,24.4987012 3.93879961,25.0716121 4.43359375,25.5664062 C4.92838789,26.0612004 5.50129883,26.4388008 6.15234375,26.6992188 C6.5299498,26.8424486 6.99543994,26.9628901 7.54882813,27.0605469 C8.10221631,27.1582036 8.77278252,27.2233071 9.56054688,27.2558594 C10.3483112,27.2884116 10.9765602,27.3079427 11.4453125,27.3144531 C11.9140648,27.3209636 12.6009069,27.3209636 13.5058594,27.3144531 C14.4108118,27.3079427 14.9088537,27.3046875 15,27.3046875 C15.0911463,27.3046875 15.5891882,27.3079427 16.4941406,27.3144531 C17.3990931,27.3209636 18.0859352,27.3209636 18.5546875,27.3144531 C19.0234398,27.3079427 19.6516888,27.2884116 20.4394531,27.2558594 C21.2272175,27.2233071 21.8977837,27.1582036 22.4511719,27.0605469 C23.0045601,26.9628901 23.4700502,26.8424486 23.8476562,26.6992188 C24.4987012,26.4388008 25.0716121,26.0612004 25.5664062,25.5664062 C26.0612004,25.0716121 26.4388008,24.4987012 26.6992188,23.8476562 C26.8424486,23.4700502 26.9628901,23.0045601 27.0605469,22.4511719 C27.1582036,21.8977837 27.2233071,21.2272175 27.2558594,20.4394531 C27.2884116,19.6516888 27.3079427,19.0234398 27.3144531,18.5546875 C27.3209636,18.0859352 27.3209636,17.3990931 27.3144531,16.4941406 C27.3079427,15.5891882 27.3046875,15.0911463 27.3046875,15 C27.3046875,14.9088537 27.3079427,14.4108118 27.3144531,13.5058594 C27.3209636,12.6009069 27.3209636,11.9140648 27.3144531,11.4453125 C27.3079427,10.9765602 27.2884116,10.3483112 27.2558594,9.56054688 C27.2233071,8.77278252 27.1582036,8.10221631 27.0605469,7.54882813 C26.9628901,6.99543994 26.8424486,6.5299498 26.6992188,6.15234375 C26.4388008,5.50129883 26.0612004,4.92838789 25.5664062,4.43359375 C25.0716121,3.93879961 24.4987012,3.56119922 23.8476562,3.30078125 C23.4700502,3.15755137 23.0045601,3.03710986 22.4511719,2.93945313 C21.8977837,2.84179639 21.2272175,2.77669287 20.4394531,2.74414063 C19.6516888,2.71158838 19.0234398,2.69205732 18.5546875,2.68554688 C18.0859352,2.67903643 17.3958379,2.6822916 16.484375,2.6953125 Z M29.9023438,8.80859375 C29.9674482,9.95443281 30,12.0182143 30,15 C30,17.9817857 29.9674482,20.0455672 29.9023438,21.1914062 C29.7721348,23.8997531 28.9648512,25.9960863 27.4804688,27.4804688 C25.9960863,28.9648512 23.8997531,29.7721348 21.1914062,29.9023438 C20.0455672,29.9674482 17.9817857,30 15,30 C12.0182143,30 9.95443281,29.9674482 8.80859375,29.9023438 C6.10024687,29.7721348 4.00391367,28.9648512 2.51953125,27.4804688 C1.03514883,25.9960863 0.227865234,23.8997531 0.09765625,21.1914062 C0.0325517578,20.0455672 0,17.9817857 0,15 C0,12.0182143 0.0325517578,9.95443281 0.09765625,8.80859375 C0.227865234,6.10024688 1.03514883,4.00391367 2.51953125,2.51953125 C4.00391367,1.03514883 6.10024687,0.227865234 8.80859375,0.09765625 C9.95443281,0.0325517578 12.0182143,0 15,0 C17.9817857,0 20.0455672,0.0325517578 21.1914062,0.09765625 C23.8997531,0.227865234 25.9960863,1.03514883 27.4804688,2.51953125 C28.9648512,4.00391367 29.7721348,6.10024688 29.9023438,8.80859375 Z" id="instagram---FontAwesome"></path>
        </g>
    </g>
</svg>