<?xml version="1.0" encoding="UTF-8"?>
<svg width="30px" height="30px" viewBox="0 0 30 30" version="1.1" xmlns="http://www.w3.org/2000/svg" xmlns:xlink="http://www.w3.org/1999/xlink">
    <!-- Generator: Sketch 47.1 (45422) - http://www.bohemiancoding.com/sketch -->
    <title>twitter</title>
    <desc>Created with Sketch.</desc>
    <defs></defs>
    <g id="assets" stroke="none" stroke-width="1" fill="none" fill-rule="evenodd">
        <g id="twitter" fill="#FFFFFF">
            <path d="M30.0055635,5.8939376 C29.1551478,7.13782928 28.1270487,8.19765986 26.9212353,9.07346115 C26.9339281,9.25115996 26.9402744,9.51770418 26.9402744,9.8731018 C26.9402744,11.5231622 26.6991153,13.1700247 26.21679,14.8137387 C25.7344646,16.4574527 25.001468,18.034506 24.0177782,19.5449459 C23.0340883,21.0553858 21.8631976,22.39128 20.505071,23.5526687 C19.1469444,24.7140573 17.5096013,25.6406158 15.5929927,26.3323719 C13.6763841,27.024128 11.6265321,27.3700008 9.44337533,27.3700008 C6.00363405,27.3700008 2.85587375,26.4497887 0,24.6093367 C0.444247028,24.6601078 0.93925772,24.6854929 1.48504693,24.6854929 C4.34092068,24.6854929 6.88578334,23.8097048 9.11971125,22.0581022 C7.78697017,22.0327167 6.59386747,21.6233809 5.54036738,20.8300826 C4.48686728,20.0367844 3.76339012,19.024551 3.36991418,17.7933521 C3.78877566,17.8568159 4.17589941,17.8885474 4.53129703,17.8885474 C5.07708624,17.8885474 5.61652097,17.8187382 6.1496174,17.6791177 C4.72802691,17.3871839 3.55078994,16.6795725 2.61787118,15.5562622 C1.68495242,14.4329518 1.21850004,13.128789 1.21850004,11.6437347 L1.21850004,11.5675784 C2.08160855,12.0499038 3.00816703,12.3101017 3.99820326,12.34818 C3.1604803,11.789698 2.49411975,11.0598746 1.99910163,10.1586877 C1.50408351,9.25750092 1.25657817,8.28017212 1.25657817,7.22667202 C1.25657817,6.10970806 1.53581497,5.07526264 2.09429695,4.12330473 C3.63012239,6.01452779 5.49910506,7.52811817 7.70130105,8.66412129 C9.90349703,9.8001244 12.2611441,10.4315804 14.774313,10.5585081 C14.6727708,10.0761827 14.6220005,9.6065572 14.6220005,9.1496174 C14.6220005,7.44878592 15.221725,5.99865844 16.421192,4.79919147 C17.6206589,3.59972449 19.0707864,3 20.7716179,3 C22.548606,3 24.0463307,3.64732167 25.2648368,4.94198444 C26.648349,4.67543622 27.9493386,4.18042553 29.1678448,3.45693752 C28.6982122,4.91660632 27.7970389,6.04624611 26.4642978,6.84589076 C27.6447256,6.71896304 28.8251357,6.40164849 30.0055635,5.8939376 Z" id="twitter---FontAwesome"></path>
        </g>
    </g>
</svg>