<?xml version="1.0" encoding="UTF-8"?>
<svg width="493px" height="159px" viewBox="0 0 493 159" version="1.1" xmlns="http://www.w3.org/2000/svg" xmlns:xlink="http://www.w3.org/1999/xlink">
    <!-- Generator: Sketch 47.1 (45422) - http://www.bohemiancoding.com/sketch -->
    <title>ascend_logo</title>
    <desc>Created with Sketch.</desc>
    <defs>
        <filter x="-2.3%" y="-7.7%" width="105.5%" height="118.2%" filterUnits="objectBoundingBox" id="filter-1">
            <feOffset dx="2" dy="2" in="SourceAlpha" result="shadowOffsetOuter1"></feOffset>
            <feGaussianBlur stdDeviation="4" in="shadowOffsetOuter1" result="shadowBlurOuter1"></feGaussianBlur>
            <feColorMatrix values="0 0 0 0 0   0 0 0 0 0   0 0 0 0 0  0 0 0 0.3 0" type="matrix" in="shadowBlurOuter1" result="shadowMatrixOuter1"></feColorMatrix>
            <feMerge>
                <feMergeNode in="shadowMatrixOuter1"></feMergeNode>
                <feMergeNode in="SourceGraphic"></feMergeNode>
            </feMerge>
        </filter>
    </defs>
    <g id="assets" stroke="none" stroke-width="1" fill="none" fill-rule="evenodd">
        <g id="ascend_logo" fill="#FFFFFF">
            <g id="Group" filter="url(#filter-1)" transform="translate(6.000000, 6.000000)">
                <polygon id="A" points="60.6873065 0 121 143 110.885449 143 98.680052 114.929131 87.7211162 106.532277 76.9986681 92.2833151 71.7151783 100.805704 64.8080495 95.3006509 38.382524 103.350838 28.8452012 99.3108034 10.3018576 143 0 143"></polygon>
                <path d="M155.480176,143 C150.377287,143 145.399953,142.171179 140.548026,140.513514 C135.696098,138.855848 131.513465,136.452268 128,133.302703 L131.889888,127.583784 C135.570661,130.567582 139.314117,132.805398 143.120371,134.297297 C146.926624,135.789197 151.004692,136.535135 155.354696,136.535135 C160.624893,136.535135 164.82844,135.478389 167.965462,133.364865 C171.102484,131.251341 172.670971,128.246866 172.670971,124.351351 C172.670971,122.527919 172.252708,121.015321 171.416169,119.813514 C170.579629,118.611706 169.345753,117.55496 167.714501,116.643243 C166.08325,115.731527 164.033759,114.923427 161.565969,114.218919 C159.098178,113.514411 156.233074,112.789193 152.970571,112.043243 C149.206145,111.131527 145.94369,110.219824 143.183111,109.308108 C140.422532,108.396392 138.142996,107.360366 136.344437,106.2 C134.545878,105.039634 133.207435,103.609918 132.329069,101.910811 C131.450703,100.211703 131.011526,98.0774903 131.011526,95.5081081 C131.011526,92.2756595 131.659834,89.4162286 132.95647,86.9297297 C134.253106,84.4432308 136.009812,82.3919 138.226641,80.7756757 C140.44347,79.1594514 143.036703,77.9369411 146.006417,77.1081081 C148.976131,76.2792751 152.134019,75.8648649 155.480176,75.8648649 C160.499412,75.8648649 165.058482,76.6729649 169.157524,78.2891892 C173.256566,79.9054135 176.560847,82.0396264 179.070464,84.6918919 L174.929616,89.6648649 C172.503652,87.1783659 169.554896,85.3135197 166.083258,84.0702703 C162.61162,82.8270208 158.993642,82.2054054 155.229216,82.2054054 C152.97056,82.2054054 150.879243,82.4333311 148.955203,82.8891892 C147.031163,83.3450473 145.337196,84.0702653 143.873252,85.0648649 C142.409309,86.0594644 141.259085,87.3234158 140.422545,88.8567568 C139.586006,90.3900978 139.167743,92.1927824 139.167743,94.2648649 C139.167743,96.0054141 139.460527,97.414409 140.046105,98.4918919 C140.631682,99.5693748 141.593688,100.501798 142.932151,101.289189 C144.270613,102.076581 145.96458,102.781078 148.014101,103.402703 C150.063622,104.024327 152.552289,104.666663 155.480176,105.32973 C159.662872,106.324329 163.34359,107.318914 166.522439,108.313514 C169.701288,109.308113 172.35726,110.468462 174.490435,111.794595 C176.62361,113.120727 178.233924,114.736927 179.321425,116.643243 C180.408926,118.549559 180.952668,120.870257 180.952668,123.605405 C180.952668,129.573003 178.65222,134.29728 174.051254,137.778378 C169.450288,141.259477 163.259991,143 155.480176,143 Z M191.691082,109.183784 C191.691082,104.625202 192.485782,100.315336 194.075207,96.2540541 C195.664631,92.1927725 197.90234,88.6495647 200.7884,85.6243243 C203.674461,82.599084 207.125133,80.2162249 211.140522,78.4756757 C215.15591,76.7351264 219.589501,75.8648649 224.441429,75.8648649 C230.631819,75.8648649 236.027416,77.2531393 240.628382,80.0297297 C245.229348,82.8063202 248.700933,86.5567331 251.043243,91.2810811 L242.761546,93.8918919 C240.92116,90.57656 238.34884,87.9864958 235.04451,86.1216216 C231.740181,84.2567474 228.080376,83.3243243 224.064988,83.3243243 C220.718831,83.3243243 217.602769,83.9873808 214.716709,85.3135135 C211.830649,86.6396463 209.321069,88.4423309 207.187894,90.7216216 C205.054719,93.0009123 203.381665,95.7152996 202.168683,98.8648649 C200.955701,102.01443 200.34922,105.454035 200.34922,109.183784 C200.34922,112.830649 200.976615,116.270254 202.231423,119.502703 C203.486232,122.735151 205.201112,125.532421 207.376114,127.894595 C209.551116,130.256769 212.081609,132.121615 214.967669,133.489189 C217.85373,134.856764 220.927965,135.540541 224.190468,135.540541 C226.281816,135.540541 228.35222,135.250453 230.401741,134.67027 C232.451262,134.090087 234.35436,133.281987 236.111093,132.245946 C237.867825,131.209905 239.373573,130.028835 240.628382,128.702703 C241.883191,127.37657 242.761544,125.967575 243.263467,124.475676 L251.670644,126.962162 C250.750451,129.282894 249.412009,131.417107 247.655276,133.364865 C245.898544,135.312622 243.82814,137.011704 241.444004,138.462162 C239.059867,139.91262 236.424808,141.031528 233.538747,141.818919 C230.652687,142.60631 227.662104,143 224.566909,143 C219.798635,143 215.40687,142.109018 211.391482,140.327027 C207.376094,138.545036 203.904508,136.100016 200.976621,132.991892 C198.048734,129.883768 195.769198,126.299119 194.137947,122.237838 C192.506695,118.176556 191.691082,113.825248 191.691082,109.183784 Z M294.030083,143 C289.261809,143 284.890957,142.109018 280.917396,140.327027 C276.943835,138.545036 273.493162,136.100016 270.565275,132.991892 C267.637387,129.883768 265.357852,126.299119 263.726601,122.237838 C262.095349,118.176556 261.279736,113.825248 261.279736,109.183784 C261.279736,104.625202 262.095349,100.336056 263.726601,96.3162162 C265.357852,92.2963763 267.616474,88.773889 270.502535,85.7486486 C273.388595,82.7234083 276.839267,80.3198287 280.854656,78.5378378 C284.870044,76.7558469 289.219983,75.8648649 293.904602,75.8648649 C298.672876,75.8648649 303.043728,76.7558469 307.017289,78.5378378 C310.990851,80.3198287 314.399697,82.7441288 317.24393,85.8108108 C320.088163,88.8774928 322.304959,92.3999801 323.894384,96.3783784 C325.483808,100.356777 326.278509,104.583761 326.278509,109.059459 L326.278509,111.048649 C326.278509,111.711715 326.236682,112.167566 326.153028,112.416216 L270.188834,112.416216 C270.439796,115.897315 271.255409,119.108994 272.635699,122.051351 C274.015989,124.993708 275.793608,127.542332 277.96861,129.697297 C280.143612,131.852263 282.632279,133.530625 285.434685,134.732432 C288.237092,135.93424 291.227674,136.535135 294.406523,136.535135 C296.497872,136.535135 298.589188,136.245048 300.680536,135.664865 C302.771884,135.084682 304.695896,134.297302 306.452628,133.302703 C308.20936,132.308103 309.798761,131.085593 311.220878,129.635135 C312.642995,128.184677 313.730479,126.589198 314.483364,124.848649 L321.8867,126.837838 C320.882853,129.241453 319.460757,131.417107 317.620371,133.364865 C315.779985,135.312622 313.646842,137.011704 311.220878,138.462162 C308.794914,139.91262 306.118029,141.031528 303.190141,141.818919 C300.262254,142.60631 297.208932,143 294.030083,143 Z M318.122292,105.951351 C317.87133,102.470253 317.055717,99.3000143 315.675427,96.4405405 C314.295137,93.5810668 312.538431,91.1153257 310.405256,89.0432432 C308.272081,86.9711608 305.804327,85.3549608 303.001921,84.1945946 C300.199515,83.0342284 297.208932,82.4540541 294.030083,82.4540541 C290.851234,82.4540541 287.839738,83.0342284 284.995504,84.1945946 C282.151271,85.3549608 279.662604,86.9711608 277.529429,89.0432432 C275.396254,91.1153257 273.681374,93.6017873 272.384738,96.5027027 C271.088103,99.4036181 270.314315,102.553136 270.063354,105.951351 L318.122292,105.951351 Z M395.741682,141.756757 L387.209025,141.756757 L387.209025,105.578378 C387.209025,97.8702317 386.058801,92.2756931 383.758318,88.7945946 C381.457835,85.3134961 377.92351,83.572973 373.155236,83.572973 C370.645618,83.572973 368.136038,84.0288243 365.626421,84.9405405 C363.116803,85.8522568 360.795441,87.1369286 358.662266,88.7945946 C356.529091,90.4522605 354.625993,92.4207093 352.952915,94.7 C351.279836,96.9792907 350.066873,99.4450318 349.313987,102.097297 L349.313987,141.756757 L340.78133,141.756757 L340.78133,76.9837838 L348.561106,76.9837838 L348.561106,91.6540541 C351.238031,86.9297061 355.065141,83.1171316 360.042549,80.2162162 C365.019958,77.3153008 370.436468,75.8648649 376.292242,75.8648649 C379.889361,75.8648649 382.942684,76.5279213 385.452301,77.8540541 C387.961919,79.1801868 389.969583,81.045033 391.475354,83.4486486 C392.981124,85.8522643 394.068609,88.7945772 394.73784,92.2756757 C395.407072,95.7567742 395.741682,99.6107897 395.741682,103.837838 L395.741682,141.756757 Z M442.116489,143 C437.599177,143 433.416544,142.067577 429.568463,140.202703 C425.720383,138.337829 422.416102,135.872087 419.655523,132.805405 C416.894943,129.738723 414.740887,126.195516 413.19329,122.175676 C411.645692,118.155836 410.871905,113.949572 410.871905,109.556757 C410.871905,104.998175 411.624779,100.667588 413.130549,96.5648649 C414.63632,92.4621416 416.706724,88.8774928 419.341822,85.8108108 C421.976921,82.7441288 425.113896,80.3198287 428.752841,78.5378378 C432.391787,76.7558469 436.386202,75.8648649 440.736206,75.8648649 C446.257365,75.8648649 451.151046,77.2945803 455.417396,80.1540541 C459.683746,83.0135278 463.029853,86.4738536 465.455816,90.5351351 L465.455816,51 L473.988474,51 L473.988474,130.816216 C473.988474,133.136949 474.992306,134.297297 477,134.297297 L477,141.756757 C475.745191,142.005407 474.741359,142.12973 473.988474,142.12973 C471.98078,142.12973 470.224074,141.487394 468.718303,140.202703 C467.212532,138.918012 466.459658,137.363973 466.459658,135.540541 L466.459658,129.2 C463.866387,133.427048 460.352975,136.783771 455.919317,139.27027 C451.485659,141.756769 446.884762,143 442.116489,143 Z M443.998693,135.540541 C446.090041,135.540541 448.327749,135.12613 450.711886,134.297297 C453.096023,133.468464 455.333732,132.328836 457.42508,130.878378 C459.516428,129.427921 461.294047,127.728839 462.757991,125.781081 C464.221935,123.833324 465.121201,121.740552 465.455816,119.502703 L465.455816,99.4864865 C464.619277,97.2486375 463.406314,95.1558656 461.816889,93.2081081 C460.227464,91.2603506 458.408019,89.540548 456.358498,88.0486486 C454.308977,86.5567493 452.113094,85.3964005 449.770784,84.5675676 C447.428475,83.7387346 445.128026,83.3243243 442.86937,83.3243243 C439.355906,83.3243243 436.177104,84.0702628 433.332871,85.5621622 C430.488637,87.0540615 428.041797,89.0225103 425.992276,91.4675676 C423.942755,93.9126248 422.374267,96.7098942 421.286766,99.8594595 C420.199265,103.009025 419.655523,106.241425 419.655523,109.556757 C419.655523,113.037855 420.282918,116.353137 421.537727,119.502703 C422.792536,122.652268 424.507415,125.408096 426.682417,127.77027 C428.857419,130.132444 431.429739,132.018011 434.399453,133.427027 C437.369167,134.836043 440.568882,135.540541 443.998693,135.540541 Z" id="scend"></path>
            </g>
        </g>
    </g>
</svg>