<?xml version="1.0" encoding="UTF-8"?>
<svg width="30px" height="30px" viewBox="0 0 30 30" version="1.1" xmlns="http://www.w3.org/2000/svg" xmlns:xlink="http://www.w3.org/1999/xlink">
    <!-- Generator: Sketch 47.1 (45422) - http://www.bohemiancoding.com/sketch -->
    <title>github</title>
    <desc>Created with Sketch.</desc>
    <defs></defs>
    <g id="assets" stroke="none" stroke-width="1" fill="none" fill-rule="evenodd">
        <g id="github" fill="#FFFFFF">
            <path d="M0,15 C0,18.2422037 0.932607861,21.1572136 2.79785156,23.7451172 C4.66309526,26.3330208 7.08006328,28.1445261 10.0488281,29.1796875 C10.1660162,29.1992188 10.2636715,29.2089844 10.3417969,29.2089844 C10.4199223,29.2089844 10.4833982,29.1943361 10.5322266,29.1650391 C10.5810549,29.135742 10.620117,29.1064455 10.6494141,29.0771484 C10.6787111,29.0478514 10.6982421,28.9990238 10.7080078,28.9306641 C10.7177735,28.8623043 10.7226562,28.8134767 10.7226562,28.7841797 L10.7226562,25.8398438 C9.99999639,25.9179691 9.35547158,25.9130864 8.7890625,25.8251953 C8.22265342,25.7373042 7.77832192,25.6005869 7.45605469,25.4150391 C7.13378745,25.2294913 6.85058716,25.0000014 6.60644531,24.7265625 C6.36230347,24.4531236 6.1962895,24.2041027 6.10839844,23.9794922 C6.02050737,23.7548817 5.93261763,23.520509 5.84472656,23.2763672 C5.7568355,23.0322253 5.7031251,22.8906252 5.68359375,22.8515625 C5.50781162,22.5585923 5.24414238,22.2900403 4.89257812,22.0458984 C4.54101387,21.8017566 4.27734463,21.606446 4.1015625,21.4599609 C3.92578037,21.3134758 3.90624932,21.1718757 4.04296875,21.0351562 C5.01953613,20.5273412 6.12304072,21.171866 7.35351562,22.96875 C8.01758145,23.9648487 9.1796792,24.2578146 10.8398438,23.8476562 C11.0351572,23.046871 11.4257783,22.3632841 12.0117188,21.796875 C9.74608242,21.3867167 8.06641172,20.5468813 6.97265625,19.2773438 C5.87890078,18.0078062 5.33203125,16.4648528 5.33203125,14.6484375 C5.33203125,12.9492103 5.86913525,11.4746156 6.94335938,10.2246094 C6.51366973,8.95507178 6.57226289,7.61719453 7.11914062,6.2109375 C7.68554971,6.1718748 8.32030898,6.28417837 9.0234375,6.54785156 C9.72656602,6.81152476 10.2197251,7.03613188 10.5029297,7.22167969 C10.7861342,7.40722749 11.0351552,7.57812422 11.25,7.734375 C12.3632868,7.42187344 13.6181571,7.265625 15.0146484,7.265625 C16.4111398,7.265625 17.6757756,7.42187344 18.8085937,7.734375 C19.0625013,7.55859287 19.3457016,7.37304785 19.6582031,7.17773438 C19.9707047,6.9824209 20.4492155,6.77246206 21.09375,6.54785156 C21.7382845,6.32324106 22.3339816,6.23046855 22.8808594,6.26953125 C23.4082058,7.65625693 23.4765645,8.97460312 23.0859375,10.2246094 C24.179693,11.4746156 24.7265625,12.9492103 24.7265625,14.6484375 C24.7265625,16.4648528 24.1699274,18.0126889 23.0566406,19.2919922 C21.9433538,20.5712955 20.2636831,21.406248 18.0175781,21.796875 C18.8574261,22.6367229 19.2773437,23.6523378 19.2773437,24.84375 L19.2773437,28.6230469 C19.2773437,28.6425782 19.2871093,28.6718748 19.3066406,28.7109375 C19.3066406,28.8281256 19.3115234,28.9160153 19.3212891,28.9746094 C19.3310547,29.0332034 19.3749996,29.0917966 19.453125,29.1503906 C19.5312504,29.2089847 19.6484367,29.2382812 19.8046875,29.2382812 C22.7929837,28.2226512 25.2392483,26.4111458 27.1435547,23.8037109 C29.0478611,21.196276 30,18.2617351 30,15 C30,12.9687398 29.6044961,11.0253999 28.8134766,9.16992188 C28.022457,7.31444385 26.9580145,5.71778013 25.6201172,4.37988281 C24.2822199,3.0419855 22.6855562,1.97754302 20.8300781,1.18652344 C18.9746001,0.395503857 17.0312602,0 15,0 C12.9687398,0 11.0253999,0.395503857 9.16992188,1.18652344 C7.31444385,1.97754302 5.71778013,3.0419855 4.37988281,4.37988281 C3.0419855,5.71778013 1.97754302,7.31444385 1.18652344,9.16992188 C0.395503857,11.0253999 0,12.9687398 0,15 Z" id="github---anticon"></path>
        </g>
    </g>
</svg>